<?xml version="1.0" encoding="UTF-8" standalone="no"?>
<svg
   viewBox="0 0 64 64"
   width="64"
   height="64"
   version="1.1"
   id="svg10"
   sodipodi:docname="flow-8b.svg"
   inkscape:version="1.4.4 (dcaf3e7d9e, 2026-05-05)"
   xmlns:inkscape="http://www.inkscape.org/namespaces/inkscape"
   xmlns:sodipodi="http://sodipodi.sourceforge.net/DTD/sodipodi-0.dtd"
   xmlns="http://www.w3.org/2000/svg"
   xmlns:svg="http://www.w3.org/2000/svg">
  <sodipodi:namedview
     id="namedview10"
     pagecolor="#ffffff"
     bordercolor="#000000"
     borderopacity="0.25"
     inkscape:showpageshadow="2"
     inkscape:pageopacity="0.0"
     inkscape:pagecheckerboard="0"
     inkscape:deskcolor="#d1d1d1"
     inkscape:zoom="11.5625"
     inkscape:cx="31.956757"
     inkscape:cy="32"
     inkscape:window-width="1707"
     inkscape:window-height="985"
     inkscape:window-x="0"
     inkscape:window-y="0"
     inkscape:window-maximized="1"
     inkscape:current-layer="svg10" />
  <defs
     id="defs2">
    <linearGradient
       id="g8bgrad"
       gradientUnits="userSpaceOnUse"
       gradientTransform="matrix(1.9163694,0,0,1.9163694,-177.74731,-124.28074)"
       x1="136.84692"
       y1="147.4249"
       x2="138.16957"
       y2="147.1757">
      <stop
         offset="0"
         style="stop-color:#055AA5;stop-opacity:1"
         id="stop1" />
      <stop
         offset="1"
         style="stop-color:#0A6B53;stop-opacity:1"
         id="stop2" />
    </linearGradient>
    <clipPath
       clipPathUnits="userSpaceOnUse"
       id="g8bclip">
      <rect
         width="4.8021626"
         height="4.8021626"
         x="114.86516"
         y="148.17294"
         transform="rotate(3.5507061)"
         id="rect2" />
    </clipPath>
  </defs>
  <rect
     width="64"
     height="64"
     fill="#ffffff"
     id="rect3" />
  <path
     d="m 6.4,39.68 v 10.24 a 7.68,7.68 0 0 0 7.68,7.68 h 10.24"
     fill="none"
     stroke="#055aa5"
     stroke-opacity="0.3"
     stroke-width="5.632"
     stroke-linecap="round"
     id="path3" />
  <path
     d="m 39.68,6.4 h 10.24 a 7.68,7.68 0 0 1 7.68,7.68 v 10.24"
     fill="none"
     stroke="#0a6b53"
     stroke-opacity="0.3"
     stroke-width="5.632"
     stroke-linecap="round"
     id="path4" />
  <path
     d="M 6.4,24.32 V 14.08 A 7.68,7.68 0 0 1 14.08,6.4 h 10.24"
     fill="none"
     stroke="#055aa5"
     stroke-width="5.632"
     stroke-linecap="round"
     id="path5" />
  <path
     d="M 39.68,57.6 H 49.92 A 7.68,7.68 0 0 0 57.6,49.92 V 39.68"
     fill="none"
     stroke="#0a6b53"
     stroke-width="5.632"
     stroke-linecap="round"
     id="path6" />
  <g
     transform="matrix(7.676416,0,0,7.676416,13.568311,13.497304)"
     id="g9">
    <g
       transform="translate(-83.307251,-155.35197)"
       id="g8">
      <ellipse
         style="fill:none;stroke:#1cb584;stroke-width:0.535067;stroke-miterlimit:4"
         cx="178.1407"
         cy="-26.727375"
         transform="matrix(0.34131277,0.93994978,-0.93209517,0.36221347,0,0)"
         rx="2.1321483"
         ry="2.078527"
         id="ellipse6" />
      <g
         transform="translate(0,-0.4)"
         id="g7">
        <path
           style="fill:#ffffff;stroke:#ffffff;stroke-width:0.688"
           transform="rotate(-3.5507061,100.8749,512.68527)"
           d="m 105.26994,158.77159 c -0.39755,-0.0459 -0.19037,-0.21986 0.56596,-0.45111 0.82389,-0.25192 2.16019,-0.53015 3.35473,-0.68672 1.29163,-0.16929 2.02386,-0.14612 1.75373,0.0616"
           clip-path="url(#g8bclip)"
           id="path7" />
      </g>
      <circle
         style="fill:url(#g8bgrad)"
         cx="85.714157"
         cy="157.76228"
         r="1.3224505"
         id="circle7" />
    </g>
  </g>
</svg>
